<?xml version="1.0" standalone="no"?>
<!DOCTYPE svg PUBLIC "-//W3C//DTD SVG 20010904//EN"
 "http://www.w3.org/TR/2001/REC-SVG-20010904/DTD/svg10.dtd">
<svg version="1.0" xmlns="http://www.w3.org/2000/svg"
 width="1280.000000pt" height="218.000000pt" viewBox="0 0 1280.000000 218.000000"
 preserveAspectRatio="xMidYMid meet">

<g transform="translate(0.000000,218.000000) scale(0.100000,-0.100000)"
fill="#000000" stroke="none">
<path d="M0 1310 l0 -870 245 0 245 0 2 498 3 497 160 -207 c88 -114 163 -207
167 -208 3 0 77 92 164 205 87 113 161 205 166 205 4 0 8 -223 8 -495 l0 -495
230 0 230 0 0 870 0 870 -214 0 -214 0 -153 -207 c-84 -115 -167 -227 -185
-251 l-32 -43 -184 250 -183 250 -227 1 -228 0 0 -870z"/>
<path d="M3855 2153 c-297 -28 -554 -156 -714 -357 -263 -332 -314 -815 -135
-1294 19 -51 60 -144 91 -207 l55 -114 182 121 c99 66 182 122 184 123 2 2
-17 44 -43 94 -71 142 -107 260 -113 369 l-5 92 257 0 256 0 0 -270 0 -270
210 0 210 0 0 640 0 640 -217 -2 -218 -3 -3 -167 -2 -168 -221 0 -221 0 7 28
c28 112 128 235 242 295 120 63 158 69 454 74 l266 5 -56 187 -57 186 -184 1
c-102 0 -203 -1 -225 -3z"/>
<path d="M5780 1995 l0 -165 203 2 202 3 3 163 2 162 -205 0 -205 0 0 -165z"/>
<path d="M9480 1300 l0 -860 478 0 477 0 59 186 c33 102 63 187 68 190 4 3 8
-81 8 -185 l0 -191 205 0 205 0 0 640 0 640 -205 0 -205 0 -2 -442 -3 -443
-312 -3 -313 -2 0 665 0 665 -230 0 -230 0 0 -860z"/>
<path d="M10570 2000 l0 -160 205 0 205 0 0 160 0 160 -205 0 -205 0 0 -160z"/>
<path d="M12340 2041 l-195 -68 -5 -124 -5 -124 -48 -3 -47 -3 2 -182 3 -182
43 -3 42 -3 0 -302 c0 -384 14 -472 88 -551 48 -51 74 -56 289 -56 l198 0 44
153 c24 83 45 158 48 165 4 9 -20 12 -96 12 -140 0 -131 -20 -131 312 l0 267
98 3 97 3 3 183 2 182 -110 0 -110 0 0 195 c0 107 -3 195 -7 194 -5 0 -96 -31
-203 -68z"/>
<path d="M4540 1080 l0 -640 215 0 215 0 0 476 0 476 98 -4 c53 -3 109 -11
124 -18 57 -27 58 -38 58 -504 l0 -426 200 0 200 0 0 483 c0 415 -2 491 -16
538 -35 117 -92 196 -170 235 -37 18 -67 19 -481 22 l-443 3 0 -641z"/>
<path d="M5780 1080 l0 -640 205 0 205 0 0 640 0 640 -205 0 -205 0 0 -640z"/>
<path d="M6370 1080 l0 -640 205 0 205 0 0 455 0 456 128 -3 127 -3 3 -453 2
-452 205 0 205 0 0 455 0 455 84 0 c76 0 87 -3 115 -26 l31 -26 0 -429 0 -429
200 0 201 0 -3 528 c-3 518 -3 528 -25 567 -30 56 -79 100 -146 130 -112 51
-157 54 -874 55 l-663 0 0 -640z"/>
<path d="M8645 1709 c-142 -21 -273 -89 -334 -174 -56 -78 -74 -144 -79 -284
-5 -144 8 -243 47 -353 40 -111 85 -182 176 -274 67 -67 97 -89 179 -130 l99
-49 294 -3 293 -3 0 166 0 165 -174 0 c-189 0 -212 6 -160 44 71 52 187 161
243 232 144 178 184 342 116 480 -65 132 -227 194 -505 192 -74 0 -162 -4
-195 -9z m304 -343 c13 -12 21 -31 21 -51 0 -86 -182 -256 -286 -267 l-29 -3
0 116 c0 108 2 118 26 156 39 58 78 74 170 71 59 -2 82 -8 98 -22z"/>
<path d="M11370 1711 c-119 -37 -199 -132 -215 -257 -12 -91 10 -140 186 -405
88 -133 159 -249 157 -258 -3 -14 -28 -16 -187 -19 -139 -2 -182 -5 -179 -15
3 -6 29 -81 59 -165 l54 -153 255 3 c240 3 257 4 296 25 104 56 176 204 155
320 -10 50 -6 44 -178 281 -147 201 -164 232 -147 260 10 15 32 17 163 20 83
1 151 5 151 9 0 4 -28 87 -62 185 l-63 178 -210 -1 c-115 0 -221 -4 -235 -8z"/>
<path d="M1670 1706 c0 -2 99 -264 220 -582 l220 -579 -90 -263 c-50 -145 -90
-268 -90 -273 0 -5 89 -9 213 -9 l212 0 293 843 c160 464 292 848 292 855 0 9
-53 12 -208 12 l-208 0 -94 -265 c-51 -146 -96 -268 -100 -270 -3 -2 -49 116
-101 263 l-95 267 -232 3 c-128 1 -232 1 -232 -2z"/>
</g>
</svg>
